<svg width="85" height="84" viewBox="0 0 85 84" fill="none" xmlns="http://www.w3.org/2000/svg">
<path d="M72.9663 76.3853C50.753 69.1799 28.5312 61.9727 6.31785 54.7673C11.5706 39.6638 16.8317 24.562 22.0844 9.45848C38.7928 14.6318 55.5097 19.807 72.218 24.9804C72.4618 42.1142 72.7141 59.2497 72.9663 76.3853Z" fill="#FFEC00"/>
<path d="M0.950301 16.6067L35.3451 18.2762L13.6226 34.0538L0.950301 16.6067Z" fill="#FFACED"/>
<path d="M54.268 32.1378C52.8333 23.4204 51.3959 14.7033 49.9611 5.98589C58.7549 6.8327 67.5511 7.6768 76.3449 8.52362C77.581 14.9818 78.8148 21.4426 80.0509 27.9008C71.4584 29.3129 62.8632 30.7253 54.2706 32.1374L54.268 32.1378Z" fill="#9EE69E"/>
<path d="M13.0518 56.2195L17.8618 42.9161L22.5261 52.5648L32.292 48.179L27.3362 61.6286L42.3494 54.7576L61.8702 61.5739L61.9156 61.4469L54.5932 49.4947L57.5084 39.5537L65.0878 52.5648L61.9156 61.4469L62.0269 61.6286L61.8702 61.5739L54.5932 81.9493L48.7628 68.4996L35.3529 74.3473L32.292 83.1188L22.5261 63.9677L17.8618 66.453L13.0518 56.2195Z" fill="black"/>
</svg>
