<svg width="131" height="147" viewBox="0 0 131 147" fill="none" xmlns="http://www.w3.org/2000/svg">
<path d="M20 27C24.5744 63.6621 29.1489 100.338 33.7233 137C62.8155 133.776 91.9078 130.539 121 127.315C118.002 99.8188 115.003 72.3086 112.005 44.812C112.005 44.812 50.6682 32.9419 20 27Z" fill="#9EE69E"/>
<path d="M82.197 61.6113L119.806 -1.71691e-05L131.003 50.8682L82.197 61.6113Z" fill="#FFEC00"/>
<path d="M7.11811 146.744C4.74683 132.337 2.37128 117.93 1.77307e-06 103.523C14.5336 104.922 29.0709 106.317 43.6045 107.717C45.6474 118.39 47.6866 129.068 49.7295 139.741C35.5285 142.075 21.3233 144.41 7.12238 146.743L7.11811 146.744Z" fill="#FFACED"/>
<path d="M46 56V79.2376L57.7329 91.5535L69.4657 79.9347V120.368L77.2094 128.037L60.0794 145H93.87L111 128.037V111.073L93.87 128.037V97.5953L69.4657 73.4282V56L57.7329 67.6188L46 56Z" fill="black"/>
</svg>
